<svg xmlns="http://www.w3.org/2000/svg" viewBox="0 0 24 24" width="100%" height="100%">
  <circle cx="12" cy="12" r="12" fill="#25D366"/>
  <path fill="#FFF" d="M12.012 3c-4.967 0-9.013 4.046-9.013 9.013 0 1.587.413 3.134 1.2 4.493L3 21.012l4.63-.122a8.966 8.966 0 0 0 4.382 1.135c4.966 0 9.013-4.047 9.013-9.013C21.025 7.046 16.979 3 12.012 3zm0 16.516c-1.344 0-2.66-.363-3.81-1.047l-.273-.162-2.83.074.077-2.76-.178-.283a7.487 7.487 0 0 1-1.14-3.992c0-4.148 3.375-7.523 7.523-7.523 2.01 0 3.898.784 5.318 2.204a7.469 7.469 0 0 1 2.205 5.32c0 4.148-3.375 7.522-7.522 7.522zm4.122-5.632c-.226-.113-1.336-.66-1.54-.734-.205-.074-.354-.11-.502.112-.15.225-.578.73-.708.88-.13.15-.26.168-.486.055-.803-.4-1.356-.587-1.907-1.533-.136-.232-.136-.375-.029-.482.097-.097.225-.255.338-.382.113-.128.15-.218.225-.364.075-.147.038-.274-.019-.387-.056-.113-.502-1.21-.688-1.657-.18-.435-.365-.375-.502-.382-.13-.006-.279-.007-.428-.007-.15 0-.393.056-.598.28-.205.226-.784.767-.784 1.868s.802 2.16 1.138 2.31c.148.2 1.502 1.636 3.13 2.054.407.137.784.148 1.08.104.33-.05 1.016-.415 1.159-.816.142-.401.142-.746.099-.816-.043-.07-.156-.11-.47-.267z"/>
</svg>
